<svg xmlns="http://www.w3.org/2000/svg" width="900" height="900" viewBox="0 0 900 900" fill="none">
  <g opacity="0.9">
    <rect x="36" y="120" width="236" height="68" rx="34" transform="rotate(-46 36 120)" fill="#B7D3E7"/>
    <rect x="262" y="180" width="280" height="70" rx="35" transform="rotate(-46 262 180)" fill="#C8E8EC"/>
    <rect x="598" y="88" width="210" height="68" rx="34" transform="rotate(-46 598 88)" fill="#C0D6EB"/>
    <rect x="702" y="274" width="264" height="70" rx="35" transform="rotate(-46 702 274)" fill="#D3ECF1"/>

    <rect x="110" y="470" width="298" height="72" rx="36" transform="rotate(-46 110 470)" fill="#C5D6EA"/>
    <rect x="412" y="402" width="236" height="70" rx="35" transform="rotate(-46 412 402)" fill="#C6E7EC"/>
    <rect x="650" y="520" width="250" height="70" rx="35" transform="rotate(-46 650 520)" fill="#CBDCF1"/>

    <rect x="82" y="738" width="248" height="70" rx="35" transform="rotate(-46 82 738)" fill="#D6E0F3"/>
    <rect x="352" y="700" width="280" height="72" rx="36" transform="rotate(-46 352 700)" fill="#BFE0E6"/>
    <rect x="666" y="758" width="238" height="70" rx="35" transform="rotate(-46 666 758)" fill="#D4E6F6"/>
  </g>

  <g opacity="0.5">
    <circle cx="158" cy="164" r="10" fill="#87B9C3"/>
    <circle cx="520" cy="138" r="8" fill="#7FA9D0"/>
    <circle cx="762" cy="172" r="9" fill="#9ACCD2"/>
    <circle cx="314" cy="520" r="8" fill="#7FA9D0"/>
    <circle cx="586" cy="440" r="10" fill="#8FBEC8"/>
    <circle cx="770" cy="628" r="8" fill="#7FA9D0"/>
    <circle cx="192" cy="792" r="9" fill="#9ACCD2"/>
    <circle cx="552" cy="776" r="10" fill="#87B9C3"/>
  </g>
</svg>
