<svg xmlns="http://www.w3.org/2000/svg" width="1600" height="980" viewBox="0 0 1600 980" fill="none">
  <defs>
    <linearGradient id="bg" x1="196" y1="126" x2="1410" y2="886" gradientUnits="userSpaceOnUse">
      <stop stop-color="#F5F8FC"/>
      <stop offset="1" stop-color="#EAEFF5"/>
    </linearGradient>
    <linearGradient id="screen" x1="582" y1="184" x2="1044" y2="642" gradientUnits="userSpaceOnUse">
      <stop stop-color="#16263F"/>
      <stop offset="1" stop-color="#274B71"/>
    </linearGradient>
    <linearGradient id="teal" x1="0" y1="0" x2="1" y2="1">
      <stop stop-color="#2D7F88"/>
      <stop offset="1" stop-color="#69C0C8"/>
    </linearGradient>
    <linearGradient id="amber" x1="0" y1="0" x2="1" y2="1">
      <stop stop-color="#C68A23"/>
      <stop offset="1" stop-color="#E0B153"/>
    </linearGradient>
    <filter id="shadow" x="342" y="120" width="918" height="702" filterUnits="userSpaceOnUse" color-interpolation-filters="sRGB">
      <feFlood flood-opacity="0" result="BackgroundImageFix"/>
      <feColorMatrix in="SourceAlpha" type="matrix" values="0 0 0 0 0 0 0 0 0 0 0 0 0 0 0 0 0 0 127 0" result="hardAlpha"/>
      <feOffset dy="28"/>
      <feGaussianBlur stdDeviation="32"/>
      <feColorMatrix type="matrix" values="0 0 0 0 0.063 0 0 0 0 0.133 0 0 0 0 0.227 0 0 0 0.18 0"/>
      <feBlend mode="normal" in2="BackgroundImageFix" result="effect1_dropShadow_0_1"/>
      <feBlend mode="normal" in="SourceGraphic" in2="effect1_dropShadow_0_1" result="shape"/>
    </filter>
  </defs>

  <rect width="1600" height="980" rx="54" fill="url(#bg)"/>
  <circle cx="286" cy="214" r="146" fill="#E1EAF4" opacity="0.82"/>
  <circle cx="1302" cy="204" r="118" fill="#DBE8F2" opacity="0.86"/>
  <circle cx="1326" cy="782" r="152" fill="#E2EEE8" opacity="0.66"/>

  <g filter="url(#shadow)">
    <rect x="406" y="176" width="790" height="570" rx="42" fill="url(#screen)"/>
    <rect x="438" y="208" width="726" height="506" rx="30" fill="#F7FBFD"/>
  </g>

  <rect x="438" y="208" width="726" height="72" rx="30" fill="#EEF5FA"/>
  <circle cx="498" cy="244" r="10" fill="#E77663"/>
  <circle cx="530" cy="244" r="10" fill="#E7BA59"/>
  <circle cx="562" cy="244" r="10" fill="#60C27B"/>
  <rect x="628" y="226" width="196" height="34" rx="17" fill="#DCEAF2"/>
  <rect x="1004" y="226" width="118" height="34" rx="17" fill="#D3E7EC"/>

  <rect x="474" y="316" width="258" height="134" rx="26" fill="#FFFFFF"/>
  <rect x="502" y="346" width="92" height="12" rx="6" fill="#92A9BD"/>
  <rect x="502" y="378" width="68" height="34" rx="17" fill="url(#teal)"/>
  <rect x="586" y="378" width="116" height="12" rx="6" fill="#D7E8EF"/>
  <rect x="586" y="402" width="86" height="10" rx="5" fill="#99B1C4"/>

  <rect x="760" y="316" width="370" height="276" rx="28" fill="#FFFFFF"/>
  <rect x="788" y="346" width="118" height="12" rx="6" fill="#92A9BD"/>
  <rect x="788" y="382" width="118" height="88" rx="20" fill="#EEF6FA"/>
  <path d="M808 448C828 434 858 426 884 414C912 402 946 382 980 388C1006 392 1026 412 1050 420C1072 427 1093 424 1110 414" stroke="#244A70" stroke-width="11" stroke-linecap="round"/>
  <circle cx="884" cy="414" r="8" fill="#244A70"/>
  <circle cx="980" cy="388" r="8" fill="#244A70"/>
  <circle cx="1050" cy="420" r="8" fill="#244A70"/>
  <rect x="930" y="382" width="174" height="88" rx="20" fill="#F7FBFD"/>
  <rect x="950" y="404" width="34" height="42" rx="17" fill="#D8A33B"/>
  <rect x="994" y="390" width="34" height="56" rx="17" fill="#BFE0E4"/>
  <rect x="1038" y="370" width="34" height="76" rx="17" fill="#2D7F88"/>
  <rect x="1082" y="402" width="34" height="44" rx="17" fill="#DCE9F1"/>
  <rect x="788" y="494" width="316" height="68" rx="22" fill="#F4F8FB"/>
  <rect x="812" y="518" width="78" height="10" rx="5" fill="#99B1C4"/>
  <rect x="904" y="514" width="60" height="18" rx="9" fill="url(#amber)"/>
  <rect x="976" y="514" width="104" height="18" rx="9" fill="#D8E7F0"/>

  <g>
    <circle cx="402" cy="660" r="76" fill="#F6E9CC"/>
    <circle cx="402" cy="620" r="34" fill="#15253E"/>
    <path d="M340 736C350 688 374 666 402 666C430 666 454 688 464 736" fill="#D8A33B"/>
    <rect x="326" y="742" width="152" height="72" rx="28" fill="#FFFFFF"/>
  </g>

  <g>
    <circle cx="664" cy="770" r="70" fill="#D7EBEE"/>
    <circle cx="664" cy="734" r="30" fill="#15253E"/>
    <path d="M608 836C617 792 639 772 664 772C689 772 711 792 720 836" fill="#2D7F88"/>
    <rect x="590" y="842" width="148" height="64" rx="28" fill="#FFFFFF"/>
  </g>

  <g>
    <circle cx="944" cy="770" r="70" fill="#E0E8F4"/>
    <circle cx="944" cy="734" r="30" fill="#15253E"/>
    <path d="M888 836C897 792 919 772 944 772C969 772 991 792 1000 836" fill="#7ABDC5"/>
    <rect x="870" y="842" width="148" height="64" rx="28" fill="#FFFFFF"/>
  </g>

  <g>
    <circle cx="1204" cy="660" r="76" fill="#DDEAF3"/>
    <circle cx="1204" cy="620" r="34" fill="#15253E"/>
    <path d="M1142 736C1152 688 1176 666 1204 666C1232 666 1256 688 1266 736" fill="#274B71"/>
    <rect x="1128" y="742" width="152" height="72" rx="28" fill="#FFFFFF"/>
  </g>

  <path d="M470 666C534 628 592 624 650 650" stroke="#C8D9E6" stroke-width="8" stroke-linecap="round" stroke-dasharray="1 24"/>
  <path d="M742 736C790 698 856 692 906 714" stroke="#C8D9E6" stroke-width="8" stroke-linecap="round" stroke-dasharray="1 24"/>
  <path d="M1000 714C1056 692 1120 696 1176 734" stroke="#C8D9E6" stroke-width="8" stroke-linecap="round" stroke-dasharray="1 24"/>
</svg>
