<svg xmlns="http://www.w3.org/2000/svg" width="1600" height="980" viewBox="0 0 1600 980" fill="none">
  <defs>
    <linearGradient id="bg" x1="182" y1="112" x2="1412" y2="900" gradientUnits="userSpaceOnUse">
      <stop stop-color="#F1F7FC"/>
      <stop offset="1" stop-color="#DEEDF5"/>
    </linearGradient>
    <linearGradient id="navy" x1="444" y1="168" x2="1188" y2="760" gradientUnits="userSpaceOnUse">
      <stop stop-color="#172940"/>
      <stop offset="1" stop-color="#234C70"/>
    </linearGradient>
    <linearGradient id="teal" x1="0" y1="0" x2="1" y2="1">
      <stop stop-color="#2D7F88"/>
      <stop offset="1" stop-color="#6AC0C8"/>
    </linearGradient>
    <linearGradient id="amber" x1="0" y1="0" x2="1" y2="1">
      <stop stop-color="#C98A1E"/>
      <stop offset="1" stop-color="#E0B151"/>
    </linearGradient>
    <filter id="shadow" x="292" y="118" width="1016" height="738" filterUnits="userSpaceOnUse" color-interpolation-filters="sRGB">
      <feFlood flood-opacity="0" result="BackgroundImageFix"/>
      <feColorMatrix in="SourceAlpha" type="matrix" values="0 0 0 0 0 0 0 0 0 0 0 0 0 0 0 0 0 0 127 0" result="hardAlpha"/>
      <feOffset dy="26"/>
      <feGaussianBlur stdDeviation="30"/>
      <feColorMatrix type="matrix" values="0 0 0 0 0.063 0 0 0 0 0.133 0 0 0 0 0.227 0 0 0 0.18 0"/>
      <feBlend mode="normal" in2="BackgroundImageFix" result="effect1_dropShadow_0_1"/>
      <feBlend mode="normal" in="SourceGraphic" in2="effect1_dropShadow_0_1" result="shape"/>
    </filter>
  </defs>

  <rect width="1600" height="980" rx="54" fill="url(#bg)"/>
  <circle cx="274" cy="214" r="144" fill="#D8EAF0" opacity="0.7"/>
  <circle cx="1328" cy="176" r="116" fill="#DCE9F3" opacity="0.9"/>
  <circle cx="1320" cy="790" r="148" fill="#D8EBEF" opacity="0.72"/>

  <g filter="url(#shadow)">
    <rect x="352" y="176" width="896" height="618" rx="40" fill="url(#navy)"/>
    <rect x="386" y="208" width="828" height="554" rx="30" fill="#F9FBFD"/>
  </g>

  <rect x="386" y="208" width="828" height="74" rx="30" fill="#EEF5FA"/>
  <circle cx="446" cy="245" r="10" fill="#E77663"/>
  <circle cx="478" cy="245" r="10" fill="#E7BA59"/>
  <circle cx="510" cy="245" r="10" fill="#60C27B"/>
  <rect x="576" y="228" width="222" height="34" rx="17" fill="#DCEAF2"/>
  <rect x="1036" y="228" width="136" height="34" rx="17" fill="#D3E7EC"/>

  <rect x="420" y="308" width="208" height="420" rx="26" fill="#FFFFFF"/>
  <rect x="448" y="338" width="116" height="12" rx="6" fill="#91A7BC"/>
  <rect x="448" y="368" width="58" height="34" rx="17" fill="url(#teal)"/>
  <rect x="520" y="368" width="72" height="34" rx="17" fill="#DDEBF3"/>
  <rect x="448" y="428" width="152" height="14" rx="7" fill="#E6F1F6"/>
  <rect x="448" y="454" width="124" height="10" rx="5" fill="#9DB2C4"/>
  <rect x="448" y="478" width="86" height="10" rx="5" fill="#9DB2C4"/>
  <rect x="448" y="526" width="152" height="122" rx="22" fill="#F4F8FB"/>
  <rect x="470" y="548" width="40" height="76" rx="18" fill="#DAE8F1"/>
  <rect x="520" y="576" width="40" height="48" rx="18" fill="#BEE0E4"/>
  <rect x="570" y="558" width="40" height="66" rx="18" fill="url(#amber)"/>
  <rect x="448" y="672" width="96" height="12" rx="6" fill="#91A7BC"/>

  <rect x="656" y="308" width="524" height="206" rx="28" fill="#FFFFFF"/>
  <rect x="688" y="340" width="144" height="12" rx="6" fill="#91A7BC"/>
  <path d="M698 460C736 438 772 420 816 388C848 366 902 350 946 360C986 369 1022 406 1060 412C1091 417 1119 408 1140 392" stroke="#234A70" stroke-width="12" stroke-linecap="round"/>
  <circle cx="816" cy="388" r="9" fill="#234A70"/>
  <circle cx="946" cy="360" r="9" fill="#234A70"/>
  <circle cx="1060" cy="412" r="9" fill="#234A70"/>
  <rect x="700" y="390" width="36" height="90" rx="18" fill="#D9E8F1"/>
  <rect x="752" y="366" width="36" height="114" rx="18" fill="#BFE0E4"/>
  <rect x="804" y="336" width="36" height="144" rx="18" fill="#7ABDC5"/>
  <rect x="856" y="354" width="36" height="126" rx="18" fill="#2D7F88"/>
  <rect x="908" y="382" width="36" height="98" rx="18" fill="#D8A33B"/>
  <rect x="960" y="404" width="36" height="76" rx="18" fill="#DCE9F1"/>

  <rect x="656" y="536" width="250" height="192" rx="28" fill="#FFFFFF"/>
  <rect x="684" y="566" width="118" height="12" rx="6" fill="#91A7BC"/>
  <rect x="684" y="606" width="194" height="30" rx="15" fill="#EFF6FA"/>
  <circle cx="716" cy="621" r="10" fill="#2D7F88"/>
  <rect x="738" y="615" width="102" height="12" rx="6" fill="#9AB0C3"/>
  <rect x="684" y="650" width="194" height="30" rx="15" fill="#EFF6FA"/>
  <circle cx="716" cy="665" r="10" fill="#D8A33B"/>
  <rect x="738" y="659" width="92" height="12" rx="6" fill="#9AB0C3"/>
  <rect x="684" y="694" width="194" height="30" rx="15" fill="#EFF6FA"/>
  <circle cx="716" cy="709" r="10" fill="#7ABDC5"/>
  <rect x="738" y="703" width="112" height="12" rx="6" fill="#9AB0C3"/>

  <rect x="930" y="536" width="250" height="192" rx="28" fill="#F7FBFD"/>
  <rect x="958" y="566" width="128" height="12" rx="6" fill="#91A7BC"/>
  <rect x="958" y="606" width="194" height="88" rx="24" fill="#EEF6FA"/>
  <circle cx="1055" cy="650" r="42" stroke="#D6E8EE" stroke-width="20"/>
  <path d="M1055 608C1074 608 1091 615 1103 628" stroke="#D8A33B" stroke-width="20" stroke-linecap="round"/>
  <path d="M1103 628C1115 641 1121 658 1118 676" stroke="#2D7F88" stroke-width="20" stroke-linecap="round"/>
  <path d="M1118 676C1110 695 1092 709 1071 713" stroke="#7ABDC5" stroke-width="20" stroke-linecap="round"/>
  <rect x="958" y="708" width="88" height="10" rx="5" fill="#9AB0C3"/>
  <rect x="1058" y="708" width="58" height="10" rx="5" fill="#D8A33B"/>
</svg>
